<svg width="25" height="25" viewBox="0 0 25 25" fill="none" xmlns="http://www.w3.org/2000/svg">
<g id="Frame" clip-path="url(#clip0_91_101)">
<path id="Vector" fill-rule="evenodd" clip-rule="evenodd" d="M15.9931 3.60558H16.0092L16.0075 3.60059L15.9931 3.60558ZM15.9385 3.62473L15.9931 3.60558H15.9582L15.9385 3.62473ZM15.9291 3.6339L15.9385 3.62473L15.9124 3.63386L15.9291 3.6339ZM15.9291 3.6339L15.6154 3.93836C19.1336 4.93669 20.8359 6.49575 20.8359 6.49575C18.5685 5.38428 16.5252 4.82854 14.4817 4.60391C13.0052 4.37929 11.5286 4.49742 10.2812 4.60391H9.94179C9.14412 4.60391 7.44695 4.93669 5.17275 5.82688C4.38017 6.16463 3.92533 6.38594 3.92533 6.38594C3.92533 6.38594 5.6259 4.71872 9.37324 3.82854L9.14412 3.60391C9.14412 3.60391 6.30646 3.49743 3.24307 5.71705C3.24307 5.71705 0.179688 10.9483 0.179688 17.3976C0.179688 17.3976 1.87685 20.2927 6.53218 20.4025C6.53218 20.4025 7.21105 19.5156 7.89841 18.7353C5.28477 17.9566 4.26646 16.3992 4.26646 16.3992C4.26646 16.3992 4.49389 16.509 4.83501 16.732H4.93684C4.98476 16.732 5.00862 16.7541 5.03389 16.7775C5.03548 16.779 5.03707 16.7804 5.03867 16.7819V16.7919C5.06583 16.8185 5.08959 16.8418 5.1405 16.8418C5.18985 16.8618 5.23919 16.8817 5.28848 16.9015C5.79848 17.1073 6.30101 17.3101 6.71888 17.5074C7.50975 17.8435 8.52635 18.1779 9.77377 18.3992C11.3521 18.6238 13.1613 18.732 15.2217 18.3992L15.2875 18.3847C16.2839 18.1651 17.2802 17.9453 18.2766 17.509C18.4587 17.4174 18.6524 17.326 18.8561 17.2296C19.3928 16.9759 19.9993 16.6892 20.6475 16.2827C20.6475 16.2827 19.6292 17.8402 16.9052 18.6189C17.4653 19.3942 18.2545 20.2827 18.2545 20.2827C22.0705 20.201 23.9743 18.2423 24.5936 17.6053C24.7301 17.4648 24.8042 17.3887 24.8225 17.4109C24.8225 10.9716 21.7422 5.73036 21.7422 5.73036C18.9992 3.73363 16.4304 3.63588 15.9291 3.6339ZM8.58408 10.9483C9.7721 10.9483 10.7327 11.9466 10.7327 13.1696C10.7327 14.4009 9.76531 15.3992 8.57729 15.3992C7.38927 15.3992 6.42189 14.4009 6.42189 13.1796C6.42189 11.9483 7.38927 10.9533 8.57729 10.9533L8.58408 10.9483ZM16.2943 10.9483C17.4875 10.9483 18.4498 11.9466 18.4498 13.1696C18.4498 14.4009 17.4823 15.3992 16.2943 15.3992C15.1063 15.3992 14.1389 14.4009 14.1389 13.1796C14.1423 11.9483 15.1113 10.9533 16.2943 10.9533V10.9483Z" fill="#FB8B24"/>
</g>
<defs>
<clipPath id="clip0_91_101">
<rect width="24.6429" height="24.6429" fill="white" transform="translate(0.179688 0.178711)"/>
</clipPath>
</defs>
</svg>
