<svg width="597" height="341" viewBox="0 0 597 341" fill="none" xmlns="http://www.w3.org/2000/svg">
<g clip-path="url(#clip0_331_2428)">
<path d="M272.74 337.919C272.745 337.745 272.728 337.571 272.688 337.401C270.122 327.2 259.591 321.969 259.591 321.969L254.53 322.367C251.62 331.359 249.744 335.748 250.211 338.205C250.223 338.274 250.245 338.34 250.264 338.406C254.438 338.778 263.032 339.022 272.74 337.919Z" fill="#060007"/>
<path d="M250.344 337.835C250.437 338.222 250.633 338.575 250.913 338.858C251.193 339.14 251.545 339.339 251.931 339.435C257.792 340.669 267.113 339.676 271.02 339.163C271.875 339.052 272.516 338.254 272.529 337.352C262.947 338.443 254.465 338.203 250.344 337.835Z" fill="url(#paint0_linear_331_2428)"/>
<path d="M263.666 313.839L261.479 324.366C261.417 324.728 261.241 325.061 260.976 325.316C260.711 325.571 260.372 325.735 260.008 325.783C258.88 325.897 257.742 325.879 256.619 325.73C255.489 325.563 254.694 324.417 254.908 323.188L256.428 313.839H263.666Z" fill="url(#paint1_linear_331_2428)"/>
<path d="M207.901 337.747C213.247 337.598 215.995 336.969 217.421 336.385C217.421 336.916 217.421 337.454 217.406 338.015C217.41 338.289 217.307 338.554 217.119 338.754C216.931 338.953 216.673 339.072 216.399 339.084L187.104 338.896C186.17 338.896 185.624 337.805 186.035 336.948C189.871 337.268 199.654 337.978 207.901 337.747Z" fill="url(#paint2_linear_331_2428)"/>
<path d="M186.1 337.514C186.132 337.436 186.171 337.361 186.217 337.29C188.837 333.629 195.515 326.335 208.706 323.177L215.035 322.976C215.035 322.976 217.851 327.875 217.905 336.948C216.459 337.538 213.664 338.175 208.259 338.327C199.902 338.552 189.991 337.833 186.1 337.514Z" fill="#23001A"/>
<path d="M215.746 313.138C215.676 313.604 214.821 320.68 214.489 323.423C214.463 323.727 214.336 324.012 214.128 324.235C213.92 324.458 213.644 324.604 213.343 324.651C212.274 324.779 210.563 324.894 209.054 324.584C208.643 324.483 208.28 324.243 208.025 323.905C207.77 323.568 207.639 323.153 207.653 322.73V311.624L215.746 313.138Z" fill="url(#paint3_linear_331_2428)"/>
<path d="M259.492 175.578C259.492 175.578 269.486 264.42 263.933 319.946C263.933 319.946 257.27 319.946 253.939 318.836C253.939 318.836 243.553 231.972 240.194 207.114C240.167 206.918 240.072 206.737 239.925 206.605C239.778 206.472 239.589 206.396 239.391 206.39C239.193 206.384 239 206.448 238.845 206.571C238.69 206.694 238.584 206.868 238.545 207.063C234.399 227.973 218.118 309.979 216.18 317.724C216.18 317.724 210.621 319.946 206.186 317.724C206.186 317.724 215.071 198.899 221.734 177.8L259.492 175.578Z" fill="url(#paint4_linear_331_2428)"/>
<path d="M279.481 72.3003C279.481 72.3003 237.282 65.6374 203.965 74.5199L206.187 108.947C206.187 108.947 215.071 156.699 221.734 177.8C221.734 177.8 247.276 182.241 259.492 175.578C259.492 175.578 269.487 115.61 275.04 106.725C275.04 106.725 280.591 83.4046 279.481 72.3003Z" fill="#0BD420"/>
<path d="M250.165 41.9556L254.369 70.395C254.369 70.395 242.625 75.79 234.399 70.1641L236.169 50.1004L250.165 41.9556Z" fill="url(#paint5_linear_331_2428)"/>
<path d="M232.064 23.442C231.934 23.6836 229.4 38.0188 227.839 46.8928C227.687 47.758 227.72 48.6455 227.936 49.497C228.151 50.3485 228.545 51.1448 229.09 51.8334C229.635 52.5221 230.32 53.0876 231.1 53.4928C231.879 53.898 232.735 54.1337 233.612 54.1844L237.016 54.3854C240.032 54.5648 243.006 53.612 245.356 51.7135C247.707 49.8151 249.263 47.1077 249.722 44.1216L252.181 28.0479C252.181 28.0479 235.28 17.6237 232.064 23.442Z" fill="url(#paint6_linear_331_2428)"/>
<path d="M255.845 28.0778C257.149 26.457 258.287 23.8333 255.509 21.0727C252.697 18.2801 249.505 18.9772 247.482 19.9138C247.045 20.1242 246.551 20.1868 246.075 20.0924C245.599 19.9979 245.167 19.7513 244.843 19.3899C244.684 19.1996 244.477 19.0541 244.245 18.9678C244.012 18.8816 243.76 18.8576 243.515 18.8981C243.24 18.9364 242.96 18.9196 242.691 18.8484C242.422 18.7772 242.17 18.6532 241.95 18.4836C241.729 18.314 241.545 18.1022 241.407 17.8606C241.27 17.6189 241.182 17.3523 241.148 17.0762C240.909 15.0619 239.835 12.6884 236.271 11.9999C229.732 10.7362 226.471 17.2772 226.589 21.8767C226.706 26.4762 233.869 27.4363 237.936 26.6794C240.93 26.117 243.496 28.7428 244.664 30.1755C244.872 30.431 245.018 30.7308 245.092 31.0518C245.166 31.3728 245.166 31.7064 245.091 32.0273L244.058 36.4707C244.773 37.852 245.476 39.2505 246.481 40.4394C247.079 41.1875 247.905 41.7199 248.833 41.9554C250.052 39.6867 253.461 39.3018 255.034 39.2505C255.333 39.2416 255.627 39.1709 255.897 39.0428C256.167 38.9147 256.408 38.7321 256.604 38.5064C257.799 37.1357 259.67 34.0779 256.091 31.0736C255.668 30.7043 255.406 30.1849 255.36 29.6256C255.314 29.0663 255.488 28.5111 255.845 28.0778Z" fill="#291720"/>
<path d="M247.661 46.7046C247.661 46.7046 247.802 38.6817 251.05 37.9376C254.298 37.1934 257.799 39.5327 255.021 44.3332C251.568 50.3055 247.661 46.7046 247.661 46.7046Z" fill="url(#paint7_linear_331_2428)"/>
<path d="M226.087 113.867C226.087 113.867 129.312 85.0853 176.658 18.3359L180.627 23.5663C180.627 23.5663 167.019 70.9083 214.273 75.2042C214.273 75.2042 226.513 106.77 226.087 113.867Z" fill="#0BD420"/>
<path d="M260.486 110.64C260.486 110.64 355.84 84.6854 308.494 17.936L305.286 22.4714C305.286 22.4714 319.551 67.6816 272.296 71.9774C272.301 71.9817 260.061 103.547 260.486 110.64Z" fill="#0BD420"/>
<path d="M308.815 18.2847C308.815 18.2847 309.565 7.50338 303.12 6.42995C296.676 5.35652 294.854 9.69299 293.78 12.9133C292.707 16.1336 303.445 22.5806 305.592 22.5806C307.739 22.5806 308.815 18.2847 308.815 18.2847Z" fill="url(#paint8_linear_331_2428)"/>
<path d="M177.037 20.0637C177.037 20.0637 175.968 7.17616 182.406 6.10059C188.845 5.02502 190.998 11.4699 192.074 14.6923C193.149 17.9147 182.406 24.3574 180.26 24.3574C178.113 24.3574 177.037 20.0637 177.037 20.0637Z" fill="url(#paint9_linear_331_2428)"/>
<path d="M87.3971 15.3252C87.8505 15.4556 80.6444 26.0531 80.4006 26.361C72.1874 36.7681 62.8045 47.6457 51.6404 54.9523C38.9709 63.2425 16.786 63.8754 11.9748 80.6526C8.12588 94.094 13.1488 107.927 23.7826 116.771C29.1989 121.274 36.3323 123.207 41.5668 127.903C48.991 134.564 46.6047 142.385 46.7544 151.336C46.9682 164.491 53.3831 173.318 65.905 177.8C91.445 186.946 152.117 143.29 121.193 89.719C90.2689 36.148 108.791 21.4835 108.791 21.4835L87.3971 15.3252Z" fill="#291720"/>
<path d="M172.305 10.5464C172.305 10.5464 141.086 59.9412 103.939 69.4824C103.939 69.4824 111.175 90.0935 116.769 92.452C116.769 92.452 162.456 54.3303 174.197 17.5643L172.305 10.5464Z" fill="url(#paint10_linear_331_2428)"/>
<path d="M22.9053 326.485L21.8939 334.805C21.8024 335.572 21.4552 336.286 20.9081 336.832C20.3611 337.377 19.6462 337.722 18.8789 337.812C16.2103 338.117 11.9315 338.43 7.74257 337.987C7.3104 337.938 6.89451 337.793 6.52481 337.564C6.15512 337.335 5.84079 337.027 5.60444 336.661C5.36808 336.296 5.21557 335.883 5.15786 335.452C5.10016 335.021 5.13868 334.583 5.27068 334.168C6.29066 330.961 8.15954 326.134 10.8517 323.297H20.0827C20.4852 323.297 20.8831 323.382 21.2501 323.548C21.6171 323.713 21.9448 323.954 22.2116 324.256C22.4784 324.557 22.6782 324.912 22.7978 325.296C22.9174 325.68 22.954 326.086 22.9053 326.485Z" fill="url(#paint11_linear_331_2428)"/>
<path d="M95.1999 229.012L96.7587 238.177C96.7587 238.177 91.5412 291.023 90.6132 312.162C90.4711 315.473 91.3247 318.75 93.0637 321.571L102.137 336.302L79.0792 322.698L78.6216 319.884L82.3957 314.694L77.4519 255.493C77.1608 252.014 77.8787 248.525 79.5197 245.443L84.2881 236.486L95.1999 229.012Z" fill="url(#paint12_linear_331_2428)"/>
<path d="M103.654 338.44H96.2958C95.6169 338.441 94.9468 338.287 94.3373 337.988C93.7277 337.689 93.1951 337.254 92.7804 336.716C90.486 333.736 85.724 327.921 83.4617 327.77C80.4018 327.556 80.7931 338.44 80.7931 338.44H79.0824L76.912 324.926C76.6454 323.268 76.9073 321.568 77.6607 320.068C78.4141 318.567 79.6207 317.341 81.1095 316.565C81.1095 316.565 81.8088 321.737 85.6 324.023C89.3912 326.309 101.028 334.501 101.028 334.501C102.024 334.385 103.032 334.411 104.021 334.58C106.337 335.001 106.012 338.44 103.654 338.44Z" fill="url(#paint13_linear_331_2428)"/>
<path d="M63.6226 233.366C63.6226 233.366 33.0598 291.342 28.1995 304.572C23.3391 317.801 21.6391 328.852 21.5707 329.898C21.4681 331.531 19.4324 333.105 13.8343 333.105C10.9433 333.105 9.52776 331.946 8.83495 330.824C8.54766 330.35 8.38553 329.812 8.36383 329.259C8.34214 328.705 8.46159 328.156 8.71093 327.661C10.4793 324.084 16.0881 312.648 18.1665 307.463C20.6469 301.262 25.9842 273.211 28.9115 263.454C31.8388 253.697 35.1468 243.115 47.8911 233.366C47.8932 233.366 56.6432 224.796 63.6226 233.366Z" fill="url(#paint14_linear_331_2428)"/>
<path d="M82.9282 138.369C90.8121 104.96 70.8403 86.0664 70.8403 86.0664C83.4435 73.9679 106.405 68.4639 106.405 68.4639C106.405 68.4639 128.314 84.4819 125.716 97.021C124.191 104.368 110.32 141.036 110.32 141.036C110.32 141.036 97.4815 147.109 82.9282 138.369Z" fill="url(#paint15_linear_331_2428)"/>
<path d="M65.4486 154.903C68.6561 145.238 82.9272 138.366 82.9272 138.366C97.4805 147.105 110.312 141.032 110.312 141.032C110.312 141.032 113.191 152.032 111.204 162.255C109.218 172.478 96.7577 238.165 96.7577 238.165C77.1217 242.144 46.9224 234.162 46.9224 234.162C59.4293 211.97 62.239 164.575 65.4486 154.903Z" fill="url(#paint16_linear_331_2428)"/>
<path d="M92.0802 46.3882L85.6653 75.1784C85.0516 77.7144 87.3652 77.2995 89.929 76.8163C94.1265 76.0251 99.5386 74.3957 101.348 71.1284C101.522 70.7892 101.634 70.4212 101.677 70.0421L104.431 50.0768C104.537 49.306 104.389 48.5218 104.01 47.8422C103.632 47.1626 103.042 46.6246 102.331 46.3091L97.0175 43.957C96.5376 43.7443 96.0169 43.6395 95.4922 43.6501C94.9674 43.6607 94.4513 43.7864 93.9804 44.0183C93.5096 44.2502 93.0953 44.5826 92.767 44.9921C92.4386 45.4016 92.2042 45.8782 92.0802 46.3882Z" fill="url(#paint17_linear_331_2428)"/>
<path d="M104.358 20.1407C104.358 20.1407 111.181 24.7595 114.113 36.5244C117.045 48.2894 112.28 52.5061 107.397 52.2495C102.513 51.993 95.4221 50.479 89.2915 42.0391C83.161 33.5992 95.4157 14.4956 104.358 20.1407Z" fill="url(#paint18_linear_331_2428)"/>
<path d="M95.484 37.2963C95.484 37.2963 92.9843 20.44 106.98 23.0188L109.811 25.9633C109.811 25.9633 116.653 18.2483 109.081 12.4171C101.51 6.58596 90.9807 8.0785 85.1603 18.6952C79.3398 29.3119 77.2293 36.7724 82.1068 43.3691C86.9842 49.9658 90.66 44.3078 90.66 44.3078C90.66 44.3078 88.4233 38.5985 90.2794 36.148C92.1354 33.6975 94.5303 37.5722 94.5303 37.5722L95.484 37.2963Z" fill="#291720"/>
<path d="M94.5301 39.9412C94.5301 39.9412 93.2963 31.2682 88.8657 33.7401C84.4352 36.212 90.463 41.84 92.8793 43.7538L94.5301 39.9412Z" fill="url(#paint19_linear_331_2428)"/>
<path d="M171.822 20.7137C171.911 21.7336 168.325 22.4371 167.184 18.0943C167.496 16.2083 168.054 7.95014 169.422 6.66716C176.714 -0.175422 182.774 0.660663 182.774 0.660663C183.45 3.02991 184.438 5.12329 184.551 7.82824C184.621 9.86952 183.935 11.8649 182.626 13.4328C181.343 14.9916 179.596 17.0059 178.029 18.5326C175.074 21.4257 171.822 20.7137 171.822 20.7137Z" fill="url(#paint20_linear_331_2428)"/>
<path d="M175.457 17.3905L174.266 16.873C174.598 16.0177 177.546 8.49088 179.041 6.84225C179.582 6.24352 179.858 5.7175 179.834 5.31977C179.814 5.10761 179.726 4.90752 179.584 4.74886L174.431 7.66123L172.128 11.4717L171.042 10.7383L173.526 6.62842L179.766 3.10449L180.099 3.39102C180.741 3.94912 181.079 4.55212 181.119 5.23638C181.166 6.04466 180.79 6.87646 179.971 7.78311C178.846 9.02332 176.33 15.1389 175.457 17.3905Z" fill="url(#paint21_linear_331_2428)"/>
<path d="M70.8398 86.0669C70.8398 86.0669 35.3439 158.923 22.5141 165.293C22.5141 165.293 9.47044 166.655 1.48172 169.072C-0.528283 169.679 -0.459861 172.531 1.56511 173.083C7.12471 174.601 16.3387 175.863 24.7828 171.285C24.7828 171.285 20.2454 178.082 22.8926 180.732C22.8926 180.732 28.9397 173.551 31.2084 171.285C33.2035 169.288 69.544 129.671 84.8201 105.778C86.0539 103.853 85.1985 98.1098 84.3411 95.9843C82.3567 91.0962 77.9775 83.2871 70.8398 86.0669Z" fill="url(#paint22_linear_331_2428)"/>
<path d="M170.015 6.2692C170.015 6.2692 174.078 -1.01815 175.449 0.630487C176.819 2.27912 177.208 2.42239 176.366 4.93918C175.523 7.45596 177.104 12.9215 174.803 14.6471C172.502 16.3727 170.693 15.2223 170.015 6.2692Z" fill="url(#paint23_linear_331_2428)"/>
<path d="M30.265 113.79C30.3123 113.789 30.3589 113.778 30.4014 113.758C30.444 113.737 30.4814 113.707 30.5109 113.67C30.5368 113.638 30.5561 113.601 30.5676 113.561C30.5792 113.521 30.5828 113.48 30.5782 113.439C30.5736 113.398 30.561 113.358 30.541 113.321C30.521 113.285 30.4941 113.253 30.4617 113.228C25.5906 109.332 20.4951 103.199 17.7794 97.9707C15.9062 94.3634 14.9825 88.4916 16.8407 84.2514C17.985 81.659 19.5204 79.2575 21.3931 77.1308C21.4206 77.0995 21.4415 77.0631 21.4549 77.0237C21.4682 76.9843 21.4736 76.9426 21.4708 76.9011C21.4681 76.8596 21.4571 76.8191 21.4387 76.7818C21.4202 76.7445 21.3945 76.7113 21.3632 76.6839C21.2999 76.6297 21.2179 76.6025 21.1347 76.6081C21.0516 76.6137 20.9739 76.6517 20.9184 76.7138C19.0036 78.8893 17.4337 81.3455 16.2634 83.9969C14.5249 87.9634 14.9184 93.8331 17.2213 98.2616C19.9712 103.56 25.133 109.774 30.0683 113.719C30.1238 113.765 30.1932 113.79 30.265 113.79Z" fill="#BDD0FB"/>
<path d="M36.0557 66.4346C36.099 66.4346 36.1419 66.4258 36.1819 66.409C38.3052 65.4831 40.5012 64.6085 42.6267 63.7617C46.3944 62.2649 50.2883 60.7125 53.9597 58.8073C61.7132 54.7723 72.2508 47.5085 78.4155 35.8355C78.4506 35.7619 78.4559 35.6776 78.4304 35.6002C78.4049 35.5228 78.3505 35.4583 78.2786 35.42C78.2067 35.3817 78.1228 35.3726 78.0443 35.3946C77.9659 35.4166 77.8989 35.4681 77.8574 35.5382C71.7697 47.0701 61.3433 54.2527 53.6689 58.247C50.0338 60.1394 46.1571 61.6833 42.4043 63.178C40.266 64.0333 38.0743 64.8886 35.9402 65.8295C35.8744 65.859 35.8207 65.9102 35.788 65.9744C35.7552 66.0387 35.7454 66.1122 35.7601 66.1828C35.7748 66.2534 35.8132 66.3168 35.8689 66.3626C35.9246 66.4084 35.9943 66.4338 36.0664 66.4346H36.0557Z" fill="#BDD0FB"/>
<path d="M109.314 22.8688C109.384 22.8689 109.453 22.8454 109.508 22.8019C109.564 22.7585 109.603 22.6977 109.62 22.6293C109.665 22.4454 110.689 18.0833 108.463 15.0961C107.248 13.4731 105.307 12.5857 102.69 12.4638C102.648 12.4606 102.606 12.4659 102.567 12.4794C102.527 12.493 102.491 12.5144 102.46 12.5424C102.429 12.5705 102.405 12.6045 102.387 12.6424C102.37 12.6804 102.361 12.7215 102.36 12.7632C102.358 12.8047 102.364 12.8463 102.379 12.8855C102.393 12.9246 102.414 12.9606 102.442 12.9914C102.47 13.0222 102.504 13.0472 102.542 13.0649C102.579 13.0826 102.62 13.0927 102.662 13.0946C105.078 13.2079 106.859 14.0098 107.956 15.4745C110.013 18.2244 109.015 22.4369 109.006 22.4796C108.996 22.5198 108.994 22.5615 109.001 22.6024C109.007 22.6433 109.021 22.6825 109.043 22.7179C109.064 22.7532 109.092 22.784 109.126 22.8084C109.159 22.8329 109.197 22.8505 109.237 22.8602C109.262 22.8666 109.288 22.8694 109.314 22.8688Z" fill="#BDD0FB"/>
<path d="M565.74 337.919C565.745 337.745 565.728 337.571 565.688 337.401C563.122 327.2 552.591 321.969 552.591 321.969L547.53 322.367C544.62 331.359 542.744 335.748 543.211 338.205C543.223 338.274 543.245 338.34 543.264 338.406C547.438 338.778 556.032 339.022 565.74 337.919Z" fill="white"/>
<path d="M543.264 338.406C543.357 338.798 543.556 339.156 543.839 339.442C544.122 339.728 544.479 339.931 544.87 340.027C550.808 341.278 560.249 340.273 564.211 339.753C565.086 339.64 565.725 338.832 565.74 337.918C556.032 339.022 547.438 338.778 543.264 338.406Z" fill="url(#paint24_linear_331_2428)"/>
<path d="M556.759 314.093L554.544 324.761C554.481 325.129 554.301 325.467 554.032 325.725C553.763 325.983 553.418 326.148 553.047 326.196C551.904 326.311 550.752 326.293 549.613 326.14C548.469 325.974 547.674 324.813 547.877 323.575L549.417 314.104L556.759 314.093Z" fill="url(#paint25_linear_331_2428)"/>
<path d="M500.265 338.318C505.671 338.166 508.466 337.529 509.911 336.939C509.911 337.476 509.911 338.023 509.894 338.59C509.899 338.868 509.795 339.136 509.605 339.339C509.415 339.542 509.154 339.663 508.876 339.676L479.197 339.484C478.249 339.484 477.7 338.378 478.106 337.51C481.991 337.833 491.902 338.551 500.265 338.318Z" fill="url(#paint26_linear_331_2428)"/>
<path d="M478.1 337.514C478.132 337.436 478.171 337.361 478.217 337.29C480.837 333.629 487.515 326.335 500.706 323.177L507.035 322.976C507.035 322.976 509.851 327.875 509.905 336.948C508.459 337.538 505.664 338.175 500.259 338.327C491.902 338.552 481.991 337.833 478.1 337.514Z" fill="white"/>
<path d="M508.207 313.377C508.136 313.85 507.27 321.019 506.934 323.799C506.908 324.106 506.779 324.395 506.568 324.621C506.358 324.846 506.078 324.994 505.773 325.042C504.704 325.17 502.951 325.287 501.426 324.975C501.01 324.872 500.642 324.629 500.384 324.287C500.125 323.945 499.992 323.524 500.006 323.096V311.842L508.207 313.377Z" fill="url(#paint27_linear_331_2428)"/>
<path d="M552.529 174.004C552.529 174.004 562.656 264.027 557.02 320.282C557.02 320.282 550.269 320.282 546.895 319.157C546.895 319.157 536.37 231.144 532.966 205.959C532.93 205.768 532.83 205.594 532.682 205.467C532.534 205.34 532.347 205.267 532.152 205.261C531.958 205.255 531.766 205.315 531.611 205.432C531.455 205.55 531.344 205.717 531.296 205.906C527.096 227.094 510.599 310.185 508.63 318.03C508.63 318.03 503.004 320.282 498.503 318.03C498.503 318.03 507.505 197.643 514.256 176.26L552.529 174.004Z" fill="url(#paint28_linear_331_2428)"/>
<path d="M543.081 38.6152L547.34 67.4203C547.34 67.4203 535.44 72.888 527.107 67.1851L528.901 46.8562L543.081 38.6152Z" fill="url(#paint29_linear_331_2428)"/>
<path d="M569.458 68.9026C558.78 67.549 524.4 64.1106 496.271 71.6118L498.52 106.494C498.52 106.494 507.522 154.877 514.273 176.256C514.273 176.256 540.146 180.747 552.529 174.005C552.529 174.005 562.656 113.245 568.284 104.242C568.284 104.242 572.892 84.8821 572.933 72.8648C572.938 71.894 572.587 70.9551 571.947 70.2251C571.307 69.4952 570.421 69.0248 569.458 68.9026Z" fill="url(#paint30_linear_331_2428)"/>
<path d="M519.471 109.802C519.471 109.802 418.814 99.0608 455.841 23.8545L459.819 27.9173C459.819 27.9173 455.114 73.7219 503.602 70.3797C503.602 70.384 518.746 102.553 519.471 109.802Z" fill="url(#paint31_linear_331_2428)"/>
<path d="M448.733 26.8614C448.733 26.8614 447.631 13.6616 454.232 12.5604C460.833 11.4592 463.033 18.0623 464.133 21.3617C465.232 24.6611 454.232 31.262 452.032 31.262C449.832 31.262 448.733 26.8614 448.733 26.8614Z" fill="url(#paint32_linear_331_2428)"/>
<path d="M572.626 70.4913C581.393 80.8535 630.244 143.226 558.479 168.524V162.885C558.479 162.885 587.805 138.081 565.246 104.232C565.246 104.232 568.34 78.6297 570.605 70.9083C570.665 70.7056 570.78 70.5231 570.936 70.3802C571.092 70.2372 571.284 70.1392 571.491 70.0964C571.698 70.0537 571.913 70.0678 572.113 70.1373C572.312 70.2069 572.49 70.3292 572.626 70.4913Z" fill="url(#paint33_linear_331_2428)"/>
<path d="M557.914 163.456C557.914 163.456 547.763 156.688 543.252 158.944C538.74 161.2 538.74 164.583 538.74 164.583C538.74 164.583 540.996 169.095 544.378 167.968C547.761 166.841 555.658 169.095 559.043 167.968C559.043 167.962 560.17 163.456 557.914 163.456Z" fill="url(#paint34_linear_331_2428)"/>
<path d="M524.905 19.4819C524.905 19.4819 519.469 31.9654 519.106 38.5129C518.742 45.0603 517.329 49.3177 524.905 50.6371C532.481 51.9564 538.864 48.1823 542.321 41.6562C542.321 41.6562 547.738 31.6061 546.523 27.4792C545.309 23.3523 524.905 19.4819 524.905 19.4819Z" fill="url(#paint35_linear_331_2428)"/>
<path d="M539.732 36.9664H538.774C538.774 36.9664 542.721 28.873 539.253 27.451C535.785 26.029 522.05 23.2278 519.087 18.3546C516.23 13.6504 518.779 7.58613 522.589 5.88832C522.707 5.84227 522.837 5.84126 522.956 5.88545C523.074 5.92964 523.172 6.01592 523.231 6.12781L523.545 6.7244C523.593 6.81481 523.667 6.88886 523.757 6.93711C523.848 6.98536 523.95 7.00562 524.052 6.99529C524.154 6.98497 524.251 6.94452 524.329 6.87914C524.408 6.81375 524.466 6.72638 524.495 6.62816C524.521 6.53331 524.575 6.44817 524.649 6.38291C524.722 6.31764 524.814 6.27503 524.911 6.26015C525.008 6.24526 525.108 6.25875 525.198 6.29899C525.288 6.33922 525.364 6.40451 525.418 6.48705C526.325 7.94324 528.782 10.3146 535.37 11.5292C544.716 13.2548 550.896 17.0374 551.048 23.5037C551.049 23.5963 551.074 23.687 551.122 23.7663C551.17 23.8456 551.238 23.9106 551.32 23.9544C551.401 23.9981 551.493 24.0191 551.586 24.015C551.678 24.011 551.768 23.9821 551.846 23.9313C552.536 23.5037 553.64 23.3134 555.117 24.5536C557.683 26.7133 556.633 32.3114 551.005 36.9173C550.942 36.9667 550.891 37.0304 550.857 37.1033C550.822 37.1761 550.806 37.256 550.808 37.3365C550.811 37.4169 550.832 37.4957 550.871 37.5662C550.91 37.6368 550.964 37.6973 551.031 37.7427C552.051 38.4055 553.571 39.9858 549.63 42.092C545.6 44.2474 543.215 44.0164 542.315 43.7812C542.198 43.7524 542.095 43.6833 542.023 43.586C541.951 43.4887 541.916 43.3693 541.924 43.2488L542.279 37.5245C542.283 37.4544 542.273 37.3841 542.249 37.318C542.226 37.2519 542.189 37.1913 542.14 37.14C542.092 37.0888 542.034 37.0479 541.97 37.0198C541.905 36.9918 541.836 36.9773 541.766 36.9771L539.732 36.9664Z" fill="#291720"/>
<path d="M539.497 38.1641C539.497 38.1641 541.569 30.1903 545.144 32.427C548.72 34.6637 543.29 41.3609 540.414 41.6602L539.497 38.1641Z" fill="url(#paint36_linear_331_2428)"/>
<path d="M186.773 0.806153C189.691 5.69646 190.669 10.3045 188.483 14.4486C184.305 15.2761 181.018 13.807 178.647 10.0244C178.784 2.55315 180.67 -1.92446 186.773 0.806153Z" fill="url(#paint37_linear_331_2428)"/>
<path d="M310.313 21.8042C310.313 21.8042 343.072 73.6196 382.026 83.6269C382.026 83.6269 374.435 105.245 368.576 107.719C368.576 107.719 320.652 67.7329 308.337 29.1664L310.313 21.8042Z" fill="url(#paint38_linear_331_2428)"/>
<path d="M310.811 32.472C310.717 33.5412 314.48 34.2789 315.678 29.7222C315.348 27.7442 314.765 19.082 313.325 17.7348C305.677 10.5672 299.322 11.4375 299.322 11.4375C298.612 13.9201 297.577 16.1183 297.459 18.9537C297.382 21.0948 298.099 23.1889 299.471 24.834C300.825 26.4698 302.649 28.5803 304.293 30.1798C307.409 33.2183 310.811 32.472 310.811 32.472Z" fill="url(#paint39_linear_331_2428)"/>
<path d="M307.008 28.9847L308.259 28.4438C307.912 27.5478 304.818 19.651 303.251 17.9212C302.682 17.2925 302.395 16.7408 302.417 16.3238C302.44 16.1017 302.532 15.8923 302.68 15.7251L308.085 18.7786L310.502 22.7751L311.641 22.0075L309.035 17.6966L302.489 13.9995L302.139 14.301C301.461 14.8848 301.11 15.5198 301.07 16.2255C301.02 17.0808 301.414 17.9361 302.273 18.8962C303.452 20.207 306.09 26.6219 307.008 28.9847Z" fill="url(#paint40_linear_331_2428)"/>
<path d="M312.715 17.3204C312.715 17.3204 308.438 9.67379 307.014 11.4037C305.59 13.1336 305.168 13.2833 306.054 15.9241C306.939 18.5649 305.28 24.2977 307.694 26.1067C310.108 27.9157 312.005 26.7097 312.715 17.3204Z" fill="url(#paint41_linear_331_2428)"/>
<path d="M392.022 26.2583C392.022 26.2583 396.714 28.3282 401.957 37.7111C404.546 42.3448 408.04 52.5552 408.784 61.9359C409.167 66.7792 411.464 70.6581 414.558 71.3958C422.256 73.239 434.108 79.4765 436.007 100.336C437.455 116.257 432.257 122.294 426.802 124.383C422.795 125.918 420.132 132.002 420.943 138.318C421.721 144.376 420.56 151.381 413.839 156.922C398.777 169.324 383.736 127.52 383.736 127.52L380.653 54.5139L392.022 26.2583Z" fill="#291720"/>
<path d="M453.346 329.209L454.321 337.221C454.409 337.96 454.743 338.648 455.27 339.173C455.797 339.698 456.486 340.031 457.225 340.117C459.791 340.409 463.914 340.711 467.947 340.285C468.363 340.238 468.763 340.099 469.119 339.878C469.475 339.657 469.778 339.36 470.006 339.009C470.233 338.657 470.381 338.26 470.436 337.844C470.492 337.429 470.455 337.007 470.329 336.608C469.345 333.516 467.549 328.871 464.953 326.13H456.064C455.675 326.13 455.291 326.212 454.937 326.372C454.583 326.531 454.267 326.764 454.01 327.056C453.753 327.347 453.56 327.69 453.446 328.061C453.332 328.432 453.298 328.824 453.346 329.209Z" fill="url(#paint42_linear_331_2428)"/>
<path d="M383.728 235.346L382.231 244.173C382.231 244.173 387.256 295.064 388.15 315.415C388.29 318.604 387.47 321.762 385.797 324.481L377.062 338.666L399.262 325.565L399.705 322.856L396.07 317.859L400.832 260.851C401.111 257.503 400.42 254.144 398.841 251.178L394.248 242.55L383.728 235.346Z" fill="url(#paint43_linear_331_2428)"/>
<path d="M375.589 340.722H382.673C383.327 340.722 383.973 340.573 384.56 340.286C385.147 339.998 385.66 339.579 386.061 339.062C388.267 336.193 392.845 330.593 395.041 330.447C397.986 330.25 397.607 340.722 397.607 340.722H399.258L401.352 327.71C401.609 326.113 401.357 324.476 400.631 323.03C399.905 321.585 398.743 320.404 397.308 319.657C397.308 319.657 396.634 324.637 392.984 326.84C389.334 329.042 378.125 336.93 378.125 336.93C377.167 336.819 376.198 336.845 375.247 337.007C373.004 337.412 373.316 340.722 375.589 340.722Z" fill="url(#paint44_linear_331_2428)"/>
<path d="M414.139 239.539C414.139 239.539 443.571 295.368 448.249 308.115C452.928 320.861 454.568 331.495 454.63 332.491C454.729 334.065 456.685 335.573 462.08 335.573C464.86 335.573 466.228 334.456 466.895 333.377C467.172 332.921 467.328 332.402 467.348 331.869C467.369 331.337 467.253 330.807 467.013 330.332C465.302 326.887 459.91 315.875 457.908 310.873C455.52 304.909 450.379 277.888 447.561 268.492C444.743 259.096 441.557 248.907 429.285 239.52C429.285 239.539 420.86 231.285 414.139 239.539Z" fill="url(#paint45_linear_331_2428)"/>
<path d="M395.546 148.06C387.955 115.891 407.807 100.177 407.807 100.177C406.951 89.9302 385.089 83.6307 376.427 81.5288C375.332 81.2624 374.189 81.2561 373.091 81.5104C371.992 81.7648 370.969 82.2727 370.102 82.9935C364.435 87.7085 352.42 98.9667 354.345 108.245C355.812 115.318 369.187 150.626 369.187 150.626C369.187 150.626 381.531 156.476 395.546 148.06Z" fill="url(#paint46_linear_331_2428)"/>
<path d="M412.381 163.986C409.291 154.678 395.548 148.058 395.548 148.058C381.534 156.477 369.179 150.624 369.179 150.624C369.179 150.624 366.399 161.215 368.323 171.06C370.248 180.905 382.231 244.171 382.231 244.171C401.14 248.003 430.221 240.322 430.221 240.322C418.174 218.934 415.469 173.292 412.381 163.986Z" fill="url(#paint47_linear_331_2428)"/>
<path d="M386.734 59.4834L392.907 87.2108C393.498 89.6528 391.272 89.2529 388.802 88.7868C384.758 88.0255 379.547 86.4538 377.805 83.3084C377.636 82.9823 377.529 82.6278 377.49 82.2628L374.837 63.0373C374.733 62.2939 374.875 61.5371 375.24 60.8812C375.605 60.2254 376.173 59.7062 376.859 59.4022L381.976 57.1334C382.439 56.9282 382.942 56.8272 383.448 56.8377C383.954 56.8481 384.452 56.9698 384.906 57.194C385.36 57.4183 385.759 57.7396 386.075 58.1352C386.391 58.5308 386.616 58.9911 386.734 59.4834Z" fill="url(#paint48_linear_331_2428)"/>
<path d="M379.492 33.0856C379.492 33.0856 372.181 36.1711 367.211 46.7365C362.242 57.3019 365.952 62.1772 370.615 62.8465C375.279 63.5158 382.25 63.4131 389.625 56.5898C397 49.7665 388.994 29.4269 379.492 33.0856Z" fill="url(#paint49_linear_331_2428)"/>
<path d="M384.668 50.9512C384.668 50.9512 390.183 35.4955 376.481 35.3137L373.25 37.5654C373.25 37.5654 368.223 28.9972 376.474 24.9066C384.726 20.816 394.383 24.1945 397.896 35.3137C401.409 46.4329 402.006 53.8721 396.164 59.1901C390.322 64.508 387.914 58.478 387.914 58.478C387.914 58.478 391.096 53.5043 389.8 50.8421C388.505 48.1799 385.524 51.3938 385.524 51.3938L384.668 50.9512Z" fill="#291720"/>
<path d="M383.862 53.9453C383.862 53.9453 386.642 45.9844 390.371 49.1555C394.1 52.3266 387.347 56.5091 384.706 57.8648L383.862 53.9453Z" fill="url(#paint50_linear_331_2428)"/>
<path d="M396.511 115.808C396.511 115.808 486.392 105.544 450.687 26.3394L444.941 31.2575C444.941 31.2575 455.205 87.0672 405.201 94.9341C405.201 94.9405 396.085 108.698 396.511 115.808Z" fill="url(#paint51_linear_331_2428)"/>
<path d="M451.533 30.1692C451.533 30.1692 458.401 19.1868 453.156 15.2737C447.911 11.3606 443.042 16.1141 440.609 18.4812C438.175 20.8483 444.78 31.5248 446.694 32.5085C448.608 33.4921 451.533 30.1692 451.533 30.1692Z" fill="url(#paint52_linear_331_2428)"/>
<path d="M293.198 15.4487C294.406 10.7444 296.461 7.19267 299.812 5.39863C300.361 5.11035 300.987 5.00192 301.601 5.08864C302.215 5.17536 302.786 5.45285 303.233 5.88189C305.564 8.14208 306.317 11.0865 305.464 14.7281C300.066 19.8899 295.559 21.7032 293.198 15.4487Z" fill="url(#paint53_linear_331_2428)"/>
</g>
<defs>
<linearGradient id="paint0_linear_331_2428" x1="182.449" y1="603.308" x2="220.205" y2="476.352" gradientUnits="userSpaceOnUse">
<stop stop-color="#09005D"/>
<stop offset="1" stop-color="#1A0F91"/>
</linearGradient>
<linearGradient id="paint1_linear_331_2428" x1="257.544" y1="303.703" x2="261.996" y2="342.567" gradientUnits="userSpaceOnUse">
<stop stop-color="#FEBBBA"/>
<stop offset="1" stop-color="#FF928E"/>
</linearGradient>
<linearGradient id="paint2_linear_331_2428" x1="623.086" y1="1754.06" x2="585.329" y2="1627.11" gradientUnits="userSpaceOnUse">
<stop stop-color="#09005D"/>
<stop offset="1" stop-color="#1A0F91"/>
</linearGradient>
<linearGradient id="paint3_linear_331_2428" x1="210.634" y1="308.675" x2="214.799" y2="345.031" gradientUnits="userSpaceOnUse">
<stop stop-color="#FEBBBA"/>
<stop offset="1" stop-color="#FF928E"/>
</linearGradient>
<linearGradient id="paint4_linear_331_2428" x1="236.347" y1="307.514" x2="231.35" y2="150.938" gradientUnits="userSpaceOnUse">
<stop stop-color="#135D00"/>
<stop offset="1" stop-color="#19910F"/>
</linearGradient>
<linearGradient id="paint5_linear_331_2428" x1="254.369" y1="57.3343" x2="234.399" y2="57.3343" gradientUnits="userSpaceOnUse">
<stop stop-color="#FEBBBA"/>
<stop offset="1" stop-color="#FF928E"/>
</linearGradient>
<linearGradient id="paint6_linear_331_2428" x1="-1430.36" y1="-1480.3" x2="-1457.06" y2="-1504.58" gradientUnits="userSpaceOnUse">
<stop stop-color="#FEBBBA"/>
<stop offset="1" stop-color="#FF928E"/>
</linearGradient>
<linearGradient id="paint7_linear_331_2428" x1="-1426.85" y1="-1484.17" x2="-1453.54" y2="-1508.45" gradientUnits="userSpaceOnUse">
<stop stop-color="#FEBBBA"/>
<stop offset="1" stop-color="#FF928E"/>
</linearGradient>
<linearGradient id="paint8_linear_331_2428" x1="383.833" y1="-141.609" x2="338.576" y2="-55.4035" gradientUnits="userSpaceOnUse">
<stop stop-color="#FEBBBA"/>
<stop offset="1" stop-color="#FF928E"/>
</linearGradient>
<linearGradient id="paint9_linear_331_2428" x1="251.016" y1="-99.2901" x2="205.462" y2="-21.7252" gradientUnits="userSpaceOnUse">
<stop stop-color="#FEBBBA"/>
<stop offset="1" stop-color="#FF928E"/>
</linearGradient>
<linearGradient id="paint10_linear_331_2428" x1="149.72" y1="34.6347" x2="93.2046" y2="112.937" gradientUnits="userSpaceOnUse">
<stop stop-color="#A22B25"/>
<stop offset="1" stop-color="#C0423C"/>
</linearGradient>
<linearGradient id="paint11_linear_331_2428" x1="22.9267" y1="330.751" x2="5.1317" y2="330.751" gradientUnits="userSpaceOnUse">
<stop stop-color="#50005D"/>
<stop offset="1" stop-color="#7F0F91"/>
</linearGradient>
<linearGradient id="paint12_linear_331_2428" x1="98.1187" y1="400.923" x2="72.5103" y2="101.633" gradientUnits="userSpaceOnUse">
<stop stop-color="#A22B25"/>
<stop offset="1" stop-color="#C0423C"/>
</linearGradient>
<linearGradient id="paint13_linear_331_2428" x1="105.597" y1="327.502" x2="76.8051" y2="327.502" gradientUnits="userSpaceOnUse">
<stop stop-color="#50005D"/>
<stop offset="1" stop-color="#910F84"/>
</linearGradient>
<linearGradient id="paint14_linear_331_2428" x1="46.606" y1="405.378" x2="20.9912" y2="106.007" gradientUnits="userSpaceOnUse">
<stop stop-color="#A22B25"/>
<stop offset="1" stop-color="#C0423C"/>
</linearGradient>
<linearGradient id="paint15_linear_331_2428" x1="-592.034" y1="-1612.94" x2="-553.068" y2="-1516.24" gradientUnits="userSpaceOnUse">
<stop stop-color="#FF928E"/>
<stop offset="1" stop-color="#FE7062"/>
</linearGradient>
<linearGradient id="paint16_linear_331_2428" x1="293.443" y1="-44.7567" x2="238.6" y2="17.3013" gradientUnits="userSpaceOnUse">
<stop stop-color="#53FF4F"/>
<stop offset="1" stop-color="#01950F"/>
</linearGradient>
<linearGradient id="paint17_linear_331_2428" x1="64.2587" y1="134.672" x2="115.131" y2="15.6116" gradientUnits="userSpaceOnUse">
<stop stop-color="#A22B25"/>
<stop offset="1" stop-color="#C0423C"/>
</linearGradient>
<linearGradient id="paint18_linear_331_2428" x1="111.111" y1="62.3976" x2="84.17" y2="-18.7808" gradientUnits="userSpaceOnUse">
<stop stop-color="#A22B25"/>
<stop offset="1" stop-color="#C0423C"/>
</linearGradient>
<linearGradient id="paint19_linear_331_2428" x1="102.365" y1="66.816" x2="75.4263" y2="-14.3598" gradientUnits="userSpaceOnUse">
<stop stop-color="#A22B25"/>
<stop offset="1" stop-color="#C0423C"/>
</linearGradient>
<linearGradient id="paint20_linear_331_2428" x1="160.353" y1="33.5375" x2="122.033" y2="86.6275" gradientUnits="userSpaceOnUse">
<stop stop-color="#A22B25"/>
<stop offset="1" stop-color="#C0423C"/>
</linearGradient>
<linearGradient id="paint21_linear_331_2428" x1="171.039" y1="10.2464" x2="181.121" y2="10.2464" gradientUnits="userSpaceOnUse">
<stop stop-color="#A22B25"/>
<stop offset="1" stop-color="#C0423C"/>
</linearGradient>
<linearGradient id="paint22_linear_331_2428" x1="24.6353" y1="164.175" x2="148.024" y2="-16.5803" gradientUnits="userSpaceOnUse">
<stop stop-color="#A22B25"/>
<stop offset="1" stop-color="#C0423C"/>
</linearGradient>
<linearGradient id="paint23_linear_331_2428" x1="165.298" y1="20.1831" x2="144.204" y2="49.341" gradientUnits="userSpaceOnUse">
<stop stop-color="#A22B25"/>
<stop offset="1" stop-color="#C0423C"/>
</linearGradient>
<linearGradient id="paint24_linear_331_2428" x1="600.092" y1="302.826" x2="516.967" y2="368.096" gradientUnits="userSpaceOnUse">
<stop stop-color="#09005D"/>
<stop offset="1" stop-color="#1A0F91"/>
</linearGradient>
<linearGradient id="paint25_linear_331_2428" x1="550.556" y1="303.825" x2="555.068" y2="343.202" gradientUnits="userSpaceOnUse">
<stop stop-color="#A22B25"/>
<stop offset="1" stop-color="#C0423C"/>
</linearGradient>
<linearGradient id="paint26_linear_331_2428" x1="473.956" y1="322.197" x2="554.341" y2="385.316" gradientUnits="userSpaceOnUse">
<stop stop-color="#09005D"/>
<stop offset="1" stop-color="#1A0F91"/>
</linearGradient>
<linearGradient id="paint27_linear_331_2428" x1="503.026" y1="308.863" x2="507.247" y2="345.698" gradientUnits="userSpaceOnUse">
<stop stop-color="#A22B25"/>
<stop offset="1" stop-color="#C0423C"/>
</linearGradient>
<linearGradient id="paint28_linear_331_2428" x1="419.76" y1="78.4414" x2="608.228" y2="377.051" gradientUnits="userSpaceOnUse">
<stop stop-color="#4FFF56"/>
<stop offset="1" stop-color="#40E250"/>
</linearGradient>
<linearGradient id="paint29_linear_331_2428" x1="547.34" y1="54.1992" x2="527.107" y2="54.1992" gradientUnits="userSpaceOnUse">
<stop stop-color="#A22B25"/>
<stop offset="1" stop-color="#C0423C"/>
</linearGradient>
<linearGradient id="paint30_linear_331_2428" x1="663.454" y1="-222.247" x2="624.485" y2="-125.551" gradientUnits="userSpaceOnUse">
<stop stop-color="#FF928E"/>
<stop offset="1" stop-color="#FE7062"/>
</linearGradient>
<linearGradient id="paint31_linear_331_2428" x1="664.927" y1="-718.412" x2="641.814" y2="-616.751" gradientUnits="userSpaceOnUse">
<stop stop-color="#FF928E"/>
<stop offset="1" stop-color="#FE7062"/>
</linearGradient>
<linearGradient id="paint32_linear_331_2428" x1="461.09" y1="6.10271" x2="449.539" y2="44.0555" gradientUnits="userSpaceOnUse">
<stop stop-color="#A22B25"/>
<stop offset="1" stop-color="#C0423C"/>
</linearGradient>
<linearGradient id="paint33_linear_331_2428" x1="707.305" y1="-204.576" x2="668.338" y2="-107.88" gradientUnits="userSpaceOnUse">
<stop stop-color="#FF928E"/>
<stop offset="1" stop-color="#FE7062"/>
</linearGradient>
<linearGradient id="paint34_linear_331_2428" x1="615.308" y1="26.3944" x2="582.196" y2="95.9323" gradientUnits="userSpaceOnUse">
<stop stop-color="#A22B25"/>
<stop offset="1" stop-color="#C0423C"/>
</linearGradient>
<linearGradient id="paint35_linear_331_2428" x1="810.337" y1="1110.25" x2="795.905" y2="1054.44" gradientUnits="userSpaceOnUse">
<stop stop-color="#A22B25"/>
<stop offset="1" stop-color="#C0423C"/>
</linearGradient>
<linearGradient id="paint36_linear_331_2428" x1="820.036" y1="1107.74" x2="805.604" y2="1051.94" gradientUnits="userSpaceOnUse">
<stop stop-color="#A22B25"/>
<stop offset="1" stop-color="#C0423C"/>
</linearGradient>
<linearGradient id="paint37_linear_331_2428" x1="183.205" y1="20.4525" x2="188.185" y2="-29.0575" gradientUnits="userSpaceOnUse">
<stop stop-color="#A22B25"/>
<stop offset="1" stop-color="#C0423C"/>
</linearGradient>
<linearGradient id="paint38_linear_331_2428" x1="334.766" y1="46.1905" x2="394.01" y2="128.075" gradientUnits="userSpaceOnUse">
<stop stop-color="#FEBBBA"/>
<stop offset="1" stop-color="#FF928E"/>
</linearGradient>
<linearGradient id="paint39_linear_331_2428" x1="323.636" y1="45.0537" x2="363.806" y2="100.572" gradientUnits="userSpaceOnUse">
<stop stop-color="#FEBBBA"/>
<stop offset="1" stop-color="#FF928E"/>
</linearGradient>
<linearGradient id="paint40_linear_331_2428" x1="311.641" y1="21.4921" x2="301.065" y2="21.4921" gradientUnits="userSpaceOnUse">
<stop stop-color="#FEBBBA"/>
<stop offset="1" stop-color="#FF928E"/>
</linearGradient>
<linearGradient id="paint41_linear_331_2428" x1="317.665" y1="31.9143" x2="339.79" y2="62.4985" gradientUnits="userSpaceOnUse">
<stop stop-color="#FEBBBA"/>
<stop offset="1" stop-color="#FF928E"/>
</linearGradient>
<linearGradient id="paint42_linear_331_2428" x1="461.472" y1="261.376" x2="462.135" y2="373.977" gradientUnits="userSpaceOnUse">
<stop stop-color="#DC4FFF"/>
<stop offset="1" stop-color="#AE40E2"/>
</linearGradient>
<linearGradient id="paint43_linear_331_2428" x1="380.92" y1="400.891" x2="405.579" y2="112.684" gradientUnits="userSpaceOnUse">
<stop stop-color="#FEBBBA"/>
<stop offset="1" stop-color="#FF928E"/>
</linearGradient>
<linearGradient id="paint44_linear_331_2428" x1="387.213" y1="281.94" x2="387.876" y2="374.009" gradientUnits="userSpaceOnUse">
<stop stop-color="#DC4FFF"/>
<stop offset="1" stop-color="#B840E2"/>
</linearGradient>
<linearGradient id="paint45_linear_331_2428" x1="430.525" y1="405.181" x2="455.19" y2="116.897" gradientUnits="userSpaceOnUse">
<stop stop-color="#FEBBBA"/>
<stop offset="1" stop-color="#FF928E"/>
</linearGradient>
<linearGradient id="paint46_linear_331_2428" x1="366.98" y1="108.521" x2="461.726" y2="173.119" gradientUnits="userSpaceOnUse">
<stop stop-color="white"/>
<stop offset="1" stop-color="#B1F9BC"/>
</linearGradient>
<linearGradient id="paint47_linear_331_2428" x1="427.518" y1="289.943" x2="406.952" y2="231.495" gradientUnits="userSpaceOnUse">
<stop stop-color="#005D04"/>
<stop offset="1" stop-color="#19910F"/>
</linearGradient>
<linearGradient id="paint48_linear_331_2428" x1="378.215" y1="116.805" x2="382.849" y2="82.9171" gradientUnits="userSpaceOnUse">
<stop stop-color="#FEBBBA"/>
<stop offset="1" stop-color="#FF928E"/>
</linearGradient>
<linearGradient id="paint49_linear_331_2428" x1="366.523" y1="73.1125" x2="406.941" y2="1.18416" gradientUnits="userSpaceOnUse">
<stop stop-color="#FEBBBA"/>
<stop offset="1" stop-color="#FF928E"/>
</linearGradient>
<linearGradient id="paint50_linear_331_2428" x1="372.785" y1="79.22" x2="413.201" y2="7.29367" gradientUnits="userSpaceOnUse">
<stop stop-color="#FEBBBA"/>
<stop offset="1" stop-color="#FF928E"/>
</linearGradient>
<linearGradient id="paint51_linear_331_2428" x1="430.095" y1="85.3523" x2="240.016" y2="563.984" gradientUnits="userSpaceOnUse">
<stop stop-color="#FEBBBA"/>
<stop offset="1" stop-color="#FF928E"/>
</linearGradient>
<linearGradient id="paint52_linear_331_2428" x1="449.869" y1="6.5416" x2="442.85" y2="44.7652" gradientUnits="userSpaceOnUse">
<stop stop-color="#FEBBBA"/>
<stop offset="1" stop-color="#FF928E"/>
</linearGradient>
<linearGradient id="paint53_linear_331_2428" x1="309.764" y1="4.25465" x2="271.107" y2="35.5872" gradientUnits="userSpaceOnUse">
<stop stop-color="#FEBBBA"/>
<stop offset="1" stop-color="#FF928E"/>
</linearGradient>
<clipPath id="clip0_331_2428">
<rect width="597" height="340.722" fill="white"/>
</clipPath>
</defs>
</svg>
