<svg width="28" height="21" viewBox="0 0 28 21" fill="none" xmlns="http://www.w3.org/2000/svg">
<g id="Icon">
<path fill-rule="evenodd" clip-rule="evenodd" d="M27.8863 10.5C27.8863 9.75676 27.2838 9.15425 26.5405 9.15425H1.41996C0.676728 9.15425 0.0742188 9.75676 0.0742188 10.5C0.0742188 11.2432 0.676728 11.8457 1.41996 11.8457H26.5405C27.2838 11.8457 27.8863 11.2432 27.8863 10.5Z" fill="white"/>
<path fill-rule="evenodd" clip-rule="evenodd" d="M27.8863 1.52836C27.8863 0.785128 27.2838 0.182617 26.5405 0.182617H1.41996C0.676728 0.182617 0.0742188 0.785128 0.0742188 1.52836C0.0742188 2.2716 0.676728 2.87411 1.41996 2.87411H26.5405C27.2838 2.87411 27.8863 2.2716 27.8863 1.52836Z" fill="white"/>
<path fill-rule="evenodd" clip-rule="evenodd" d="M27.8863 19.4716C27.8863 18.7284 27.2838 18.1259 26.5405 18.1259H1.41996C0.676728 18.1259 0.0742188 18.7284 0.0742188 19.4716C0.0742188 20.2149 0.676728 20.8174 1.41996 20.8174H26.5405C27.2838 20.8174 27.8863 20.2149 27.8863 19.4716Z" fill="white"/>
</g>
</svg>
