<svg width="16" height="16" viewBox="0 0 16 16" fill="none" xmlns="http://www.w3.org/2000/svg">
<g id="Outline/Status/Info-circle">
<g id="Icon">
<path d="M7.99996 7.16666C8.2761 7.16666 8.49996 7.39051 8.49996 7.66666V11C8.49996 11.2761 8.2761 11.5 7.99996 11.5C7.72382 11.5 7.49996 11.2761 7.49996 11V7.66666C7.49996 7.39051 7.72382 7.16666 7.99996 7.16666Z" fill="#919191"/>
<path d="M7.99996 5.99999C8.36815 5.99999 8.66663 5.70151 8.66663 5.33332C8.66663 4.96513 8.36815 4.66666 7.99996 4.66666C7.63177 4.66666 7.33329 4.96513 7.33329 5.33332C7.33329 5.70151 7.63177 5.99999 7.99996 5.99999Z" fill="#919191"/>
<path fill-rule="evenodd" clip-rule="evenodd" d="M2.16663 7.99999C2.16663 4.77833 4.7783 2.16666 7.99996 2.16666C11.2216 2.16666 13.8333 4.77833 13.8333 7.99999C13.8333 11.2217 11.2216 13.8333 7.99996 13.8333C4.7783 13.8333 2.16663 11.2217 2.16663 7.99999ZM7.99996 3.16666C5.33058 3.16666 3.16663 5.33061 3.16663 7.99999C3.16663 10.6694 5.33058 12.8333 7.99996 12.8333C10.6693 12.8333 12.8333 10.6694 12.8333 7.99999C12.8333 5.33061 10.6693 3.16666 7.99996 3.16666Z" fill="#919191"/>
</g>
</g>
</svg>
