<svg width="128" height="35" viewBox="0 0 128 35" fill="none" xmlns="http://www.w3.org/2000/svg">
<path fill-rule="evenodd" clip-rule="evenodd" d="M19.0039 1.50391C18.1733 0.673322 16.8267 0.673323 15.9961 1.50391L1.50391 15.9961C0.673322 16.8267 0.673323 18.1733 1.50391 19.0039L15.9961 33.4961C16.8267 34.3267 18.1733 34.3267 19.0039 33.4961L33.4961 19.0039C34.3267 18.1733 34.3267 16.8267 33.4961 15.9961L19.0039 1.50391ZM16.4062 5.46875C17.0103 4.86469 17.9897 4.86469 18.5938 5.46875L21.7383 8.61328C22.3423 9.21734 22.3423 10.1967 21.7383 10.8008L16.1328 16.4063C15.5288 17.0103 15.5288 17.9897 16.1328 18.5938L21.7383 24.1992C22.3423 24.8033 22.3423 25.7827 21.7383 26.3867L18.5938 29.5313C17.9897 30.1353 17.0103 30.1353 16.4063 29.5313L5.46875 18.5938C5.431 18.556 5.3956 18.5168 5.36257 18.4763C4.86705 17.8687 4.90245 16.9726 5.46875 16.4063L8.61328 13.2617L8.61501 13.26L16.4062 5.46875ZM23.9258 12.9883C24.5298 12.3842 25.5092 12.3842 26.1133 12.9883L29.5313 16.4063C30.1353 17.0103 30.1353 17.9897 29.5312 18.5938L26.1133 22.0117C25.5092 22.6158 24.5298 22.6158 23.9258 22.0117L20.5078 18.5937C19.9038 17.9897 19.9038 17.0103 20.5078 16.4062L23.9258 12.9883Z" fill="white"/>
<path d="M48.154 26.5V9.17588H51.3714V23.7776H60.4294V26.5H48.154ZM68.7635 26.6732C67.2951 26.6732 66.0082 26.3845 64.9027 25.807C63.8138 25.2131 62.9641 24.4046 62.3536 23.3817C61.7596 22.3587 61.4627 21.1955 61.4627 19.8921C61.4627 18.5722 61.7514 17.409 62.3289 16.4025C62.9228 15.3796 63.7313 14.5794 64.7542 14.0019C65.7937 13.4244 66.9734 13.1357 68.2933 13.1357C69.5802 13.1357 70.7269 13.4162 71.7334 13.9771C72.7398 14.5381 73.5318 15.3301 74.1093 16.353C74.6867 17.376 74.9755 18.5804 74.9755 19.9663C74.9755 20.0983 74.9672 20.2468 74.9507 20.4118C74.9507 20.5768 74.9425 20.7335 74.926 20.882H63.9128V18.8279H73.2926L72.0799 19.4714C72.0964 18.7124 71.9396 18.0442 71.6096 17.4667C71.2797 16.8892 70.8259 16.4355 70.2485 16.1055C69.6875 15.7755 69.0358 15.6106 68.2933 15.6106C67.5343 15.6106 66.8661 15.7755 66.2887 16.1055C65.7277 16.4355 65.2822 16.8975 64.9522 17.4915C64.6387 18.0689 64.482 18.7536 64.482 19.5456V20.0406C64.482 20.8325 64.6635 21.5338 65.0265 22.1442C65.3895 22.7547 65.9009 23.2249 66.5609 23.5549C67.2209 23.8849 67.9798 24.0499 68.8378 24.0499C69.5802 24.0499 70.2485 23.9344 70.8424 23.7034C71.4364 23.4724 71.9644 23.1094 72.4263 22.6144L74.0845 24.5201C73.4905 25.2131 72.7398 25.7493 71.8324 26.1288C70.9414 26.4918 69.9185 26.6732 68.7635 26.6732ZM85.4459 13.1357C86.5019 13.1357 87.4423 13.3419 88.2673 13.7544C89.1087 14.1669 89.7687 14.8021 90.2472 15.6601C90.7257 16.5015 90.9649 17.5905 90.9649 18.9269V26.5H87.8713V19.3229C87.8713 18.1514 87.5908 17.277 87.0298 16.6995C86.4854 16.122 85.7182 15.8333 84.7282 15.8333C84.0022 15.8333 83.3588 15.9818 82.7978 16.2788C82.2368 16.5758 81.7996 17.0212 81.4861 17.6152C81.1891 18.1927 81.0406 18.9269 81.0406 19.8178V26.5H77.9471V13.2842H80.8922V16.848L80.3724 15.759C80.8344 14.9176 81.5026 14.2741 82.3771 13.8286C83.268 13.3667 84.291 13.1357 85.4459 13.1357ZM98.9728 26.6732C97.8674 26.6732 96.8032 26.533 95.7803 26.2525C94.7738 25.9555 93.9736 25.6008 93.3796 25.1883L94.5676 22.8372C95.1615 23.2167 95.871 23.5302 96.696 23.7776C97.5209 24.0251 98.3459 24.1489 99.1708 24.1489C100.144 24.1489 100.846 24.0169 101.274 23.7529C101.72 23.4889 101.943 23.1342 101.943 22.6887C101.943 22.3257 101.794 22.0535 101.497 21.872C101.2 21.674 100.813 21.5255 100.334 21.4265C99.8556 21.3275 99.3193 21.2368 98.7254 21.1543C98.1479 21.0718 97.5622 20.9645 96.9682 20.8325C96.3907 20.684 95.8628 20.4778 95.3843 20.2138C94.9058 19.9333 94.5181 19.5621 94.2211 19.1001C93.9241 18.6381 93.7756 18.0277 93.7756 17.2687C93.7756 16.4273 94.0149 15.7013 94.4933 15.0908C94.9718 14.4639 95.64 13.9854 96.498 13.6554C97.3724 13.3089 98.4036 13.1357 99.5916 13.1357C100.483 13.1357 101.382 13.2347 102.289 13.4327C103.197 13.6307 103.947 13.9111 104.541 14.2741L103.353 16.6253C102.726 16.2458 102.091 15.99 101.448 15.858C100.821 15.7095 100.194 15.6353 99.5668 15.6353C98.6264 15.6353 97.9252 15.7755 97.4632 16.056C97.0177 16.3365 96.795 16.6912 96.795 17.1202C96.795 17.5162 96.9435 17.8132 97.2404 18.0112C97.5374 18.2092 97.9252 18.3659 98.4036 18.4814C98.8821 18.5969 99.4101 18.6959 99.9875 18.7784C100.582 18.8444 101.167 18.9516 101.745 19.1001C102.322 19.2486 102.85 19.4549 103.329 19.7188C103.824 19.9663 104.22 20.3211 104.517 20.783C104.814 21.245 104.962 21.8472 104.962 22.5897C104.962 23.4147 104.715 24.1324 104.22 24.7428C103.741 25.3533 103.056 25.8318 102.165 26.1783C101.274 26.5082 100.21 26.6732 98.9728 26.6732ZM107.626 26.5V8.13643H110.72V26.5H107.626ZM115.869 31.4745C115.226 31.4745 114.582 31.3673 113.939 31.1528C113.295 30.9383 112.759 30.6413 112.33 30.2618L113.567 27.9849C113.881 28.2654 114.236 28.4881 114.632 28.6531C115.028 28.8181 115.432 28.9006 115.844 28.9006C116.405 28.9006 116.859 28.7604 117.206 28.4799C117.552 28.1994 117.874 27.7292 118.171 27.0692L118.938 25.3368L119.185 24.9656L124.185 13.2842H127.155L120.967 27.5642C120.555 28.5541 120.093 29.3379 119.581 29.9153C119.086 30.4928 118.525 30.897 117.898 31.128C117.288 31.359 116.612 31.4745 115.869 31.4745ZM118.591 26.9702L112.627 13.2842H115.844L120.695 24.6933L118.591 26.9702Z" fill="white"/>
</svg>
