<svg width="44" height="44" viewBox="0 0 44 44" fill="none" xmlns="http://www.w3.org/2000/svg">
<path id="Logo" fill-rule="evenodd" clip-rule="evenodd" d="M23.572 0.944544C22.498 -0.129398 20.7568 -0.129398 19.6829 0.944544L0.944572 19.6829C-0.129371 20.7568 -0.12937 22.498 0.944571 23.572L19.6829 42.3103C20.7568 43.3842 22.498 43.3842 23.572 42.3103L42.3103 23.572C43.3843 22.498 43.3843 20.7568 42.3103 19.6829L23.572 0.944544ZM29.9359 15.7938C30.717 15.0127 31.9833 15.0127 32.7644 15.7938L37.1838 20.2132C37.9648 20.9943 37.9648 22.2606 37.1838 23.0416L32.7644 27.461C31.9833 28.2421 30.717 28.2421 29.9359 27.461L25.5165 23.0416C24.7355 22.2606 24.7355 20.9943 25.5165 20.2132L29.9359 15.7938ZM20.2132 6.07107C20.9943 5.29002 22.2606 5.29002 23.0417 6.07107L27.1075 10.1369C27.8886 10.918 27.8886 12.1843 27.1075 12.9654L19.8597 20.2132C19.0786 20.9943 19.0786 22.2606 19.8597 23.0416L27.1075 30.2895C27.8886 31.0705 27.8886 32.3369 27.1075 33.1179L23.0417 37.1838C22.2606 37.9648 20.9943 37.9648 20.2132 37.1838L6.07109 23.0416C6.02228 22.9928 5.97651 22.9421 5.9338 22.8897C5.29309 22.1042 5.33886 20.9454 6.07109 20.2132L10.137 16.1473L10.1392 16.1451L20.2132 6.07107Z" fill="#FB8B24"/>
</svg>
