<svg width="25" height="21" viewBox="0 0 25 21" fill="none" xmlns="http://www.w3.org/2000/svg">
<path d="M24.7753 2.8696C23.8667 3.26902 22.8963 3.54112 21.8747 3.66536C22.9159 3.03799 23.7166 2.0492 24.0956 0.86942C23.1192 1.43929 22.0369 1.85411 20.8849 2.08514C19.9649 1.10045 18.6536 0.484375 17.1976 0.484375C14.4078 0.484375 12.1458 2.74639 12.1458 5.53308C12.1458 5.93353 12.1921 6.31857 12.2762 6.68719C8.0767 6.48902 4.3546 4.47241 1.86362 1.42389C1.42518 2.16522 1.17978 3.0267 1.17978 3.96518C1.17978 5.72098 2.07308 7.26424 3.42638 8.17089C2.59777 8.1442 1.81844 7.91625 1.13871 7.53839V7.60103C1.13871 10.0499 2.87705 12.0922 5.1904 12.5573C4.76634 12.6713 4.31866 12.7329 3.85969 12.7329C3.53728 12.7329 3.22821 12.7021 2.91915 12.6446C3.56705 14.6499 5.42964 16.112 7.64647 16.1531C5.92147 17.5075 3.73545 18.3146 1.38103 18.3146C0.98058 18.3146 0.581161 18.2909 0.179688 18.2457C2.42732 19.677 5.0754 20.5139 7.93911 20.5139C17.2357 20.5139 22.3131 12.8171 22.3131 6.15326C22.3131 5.93866 22.3131 5.72201 22.2977 5.50638C23.2844 4.79893 24.1458 3.9046 24.8235 2.89014L24.7753 2.8696Z" fill="#FB8B24"/>
</svg>
