<svg width="33" height="24" viewBox="0 0 33 24" fill="none" xmlns="http://www.w3.org/2000/svg">
<path d="M14.9026 19.6933C15.0257 19.6934 15.1476 19.7178 15.2612 19.7651C15.3749 19.8124 15.4781 19.8816 15.565 19.9687C15.652 20.0559 15.7209 20.1593 15.7678 20.2731C15.8147 20.3869 15.8388 20.5088 15.8386 20.6319C15.8385 20.755 15.814 20.8769 15.7668 20.9905C15.7195 21.1042 15.6503 21.2074 15.5632 21.2943C15.476 21.3812 15.3726 21.4501 15.2588 21.4971C15.145 21.544 15.0231 21.5681 14.9 21.5679C14.6514 21.5676 14.4131 21.4685 14.2376 21.2924C14.062 21.1164 13.9636 20.8779 13.964 20.6293C13.9643 20.3807 14.0634 20.1424 14.2395 19.9669C14.4155 19.7913 14.654 19.6929 14.9026 19.6933ZM29.6013 13.8973C29.4782 13.8972 29.3563 13.8728 29.2427 13.8257C29.129 13.7785 29.0257 13.7093 28.9387 13.6222C28.8517 13.5351 28.7828 13.4318 28.7357 13.318C28.6887 13.2043 28.6646 13.0823 28.6646 12.9593C28.6647 12.8362 28.6891 12.7143 28.7362 12.6006C28.7834 12.4869 28.8525 12.3836 28.9396 12.2967C29.0268 12.2097 29.1301 12.1407 29.2439 12.0937C29.3576 12.0467 29.4795 12.0225 29.6026 12.0226C29.8512 12.0228 30.0896 12.1217 30.2652 12.2976C30.4409 12.4735 30.5395 12.712 30.5393 12.9606C30.5391 13.2092 30.4402 13.4475 30.2643 13.6232C30.0884 13.7988 29.8499 13.8974 29.6013 13.8973ZM29.6013 10.0626C28.8328 10.0633 28.0959 10.3689 27.5524 10.9124C27.009 11.4558 26.7033 12.1927 26.7026 12.9613C26.7026 13.2719 26.7546 13.5813 26.856 13.8826L17.2813 18.9799C17.0158 18.5944 16.6606 18.2793 16.2462 18.0616C15.8318 17.844 15.3707 17.7304 14.9026 17.7306C13.7973 17.7306 12.7906 18.3639 12.3026 19.3519L3.70131 14.8159C2.79198 14.3386 2.11198 12.8426 2.18398 11.4799C2.22131 10.7693 2.46664 10.2173 2.84131 10.0039C3.07864 9.87059 3.36398 9.88126 3.66798 10.0399L3.72398 10.0706C6.00398 11.2706 13.4626 15.1999 13.7773 15.3453C14.2613 15.5706 14.5306 15.6613 15.3573 15.2693L30.776 7.25059C31.0026 7.16526 31.2666 6.94792 31.2666 6.61859C31.2666 6.16259 30.7933 5.98259 30.7933 5.98259C29.916 5.56259 28.568 4.93192 27.2533 4.31592C24.4426 2.99992 21.2573 1.50926 19.8586 0.775923C18.6506 0.143923 17.6786 0.677257 17.5053 0.783923L17.1693 0.95059C10.8733 4.06392 2.44664 8.23726 1.96664 8.52926C1.10931 9.05192 0.577309 10.0933 0.507975 11.3853C0.401309 13.4346 1.44531 15.5719 2.93998 16.3546L12.036 21.0453C12.1362 21.7343 12.4809 22.3643 13.0073 22.8201C13.5336 23.2759 14.2064 23.5272 14.9026 23.5279C15.6631 23.5266 16.3926 23.227 16.9345 22.6934C17.4763 22.1598 17.7871 21.4349 17.8 20.6746L27.8186 15.2439C28.3253 15.6413 28.956 15.8586 29.6013 15.8586C30.3699 15.8579 31.1067 15.5523 31.6502 15.0088C32.1936 14.4654 32.4993 13.7285 32.5 12.9599C32.4993 12.1914 32.1936 11.4545 31.6502 10.911C31.1067 10.3676 30.3699 10.062 29.6013 10.0613" fill="white"/>
</svg>
