<svg width="35" height="35" viewBox="0 0 35 35" fill="none" xmlns="http://www.w3.org/2000/svg">
<path fill-rule="evenodd" clip-rule="evenodd" d="M19.0039 1.50391C18.1733 0.673322 16.8267 0.673323 15.9961 1.50391L1.50391 15.9961C0.673322 16.8267 0.673323 18.1733 1.50391 19.0039L15.9961 33.4961C16.8267 34.3267 18.1733 34.3267 19.0039 33.4961L33.4961 19.0039C34.3267 18.1733 34.3267 16.8267 33.4961 15.9961L19.0039 1.50391ZM16.4062 5.46875C17.0103 4.86469 17.9897 4.86469 18.5938 5.46875L21.7383 8.61328C22.3423 9.21734 22.3423 10.1967 21.7383 10.8008L16.1328 16.4063C15.5288 17.0103 15.5288 17.9897 16.1328 18.5938L21.7383 24.1992C22.3423 24.8033 22.3423 25.7827 21.7383 26.3867L18.5938 29.5313C17.9897 30.1353 17.0103 30.1353 16.4063 29.5313L5.46875 18.5938C5.431 18.556 5.3956 18.5168 5.36257 18.4763C4.86705 17.8687 4.90245 16.9726 5.46875 16.4063L8.61328 13.2617L8.61501 13.26L16.4062 5.46875ZM23.9258 12.9883C24.5298 12.3842 25.5092 12.3842 26.1133 12.9883L29.5313 16.4063C30.1353 17.0103 30.1353 17.9897 29.5312 18.5938L26.1133 22.0117C25.5092 22.6158 24.5298 22.6158 23.9258 22.0117L20.5078 18.5937C19.9038 17.9897 19.9038 17.0103 20.5078 16.4062L23.9258 12.9883Z" fill="white"/>
</svg>
